<?xml version="1.0" standalone="no"?>
<!DOCTYPE svg PUBLIC "-//W3C//DTD SVG 20010904//EN"
 "http://www.w3.org/TR/2001/REC-SVG-20010904/DTD/svg10.dtd">
<svg version="1.0" xmlns="http://www.w3.org/2000/svg"
 width="828.000000pt" height="828.000000pt" viewBox="0 0 828.000000 828.000000"
 preserveAspectRatio="xMidYMid meet">
<metadata>
Created by potrace 1.14, written by Peter Selinger 2001-2017
</metadata>
<g transform="translate(0.000000,828.000000) scale(0.100000,-0.100000)"
fill="#000000" stroke="none">
<path d="M3250 7781 c-59 -19 -437 -169 -507 -202 -24 -10 -47 -19 -52 -19 -5
0 -22 -7 -38 -15 -15 -8 -125 -53 -243 -100 -118 -48 -233 -97 -256 -110 -91
-53 -143 -135 -150 -237 -4 -73 13 -129 135 -428 l80 -195 -42 -34 c-66 -54
-327 -320 -380 -388 l-49 -61 -91 38 c-51 21 -146 62 -212 90 -66 28 -127 53
-135 55 -8 2 -35 10 -60 18 -129 40 -272 -25 -340 -155 -12 -24 -99 -223 -192
-443 -93 -220 -176 -413 -183 -430 -40 -89 -86 -208 -92 -242 -18 -95 4 -182
62 -251 45 -53 75 -70 313 -172 12 -6 32 -14 45 -20 12 -5 73 -31 136 -58
l114 -48 2 -250 c2 -221 8 -354 20 -391 5 -16 -20 -29 -255 -133 -228 -100
-279 -129 -327 -184 -87 -99 -90 -222 -8 -400 13 -28 90 -199 170 -381 81
-181 153 -346 162 -365 69 -154 126 -260 158 -292 59 -59 118 -83 200 -83 78
1 113 12 320 105 234 104 292 130 298 130 3 0 68 -62 144 -137 76 -76 160
-154 185 -173 26 -19 50 -42 53 -51 5 -14 -46 -163 -90 -264 -43 -100 -98
-268 -102 -316 -12 -122 51 -231 164 -288 55 -27 457 -186 623 -246 36 -13
130 -49 210 -80 242 -94 282 -107 350 -110 124 -6 218 55 278 178 26 53 132
318 132 330 0 3 7 21 15 41 8 20 15 38 15 41 0 3 7 19 15 35 14 27 20 30 48
25 48 -9 346 -10 472 -2 l111 8 18 -43 c10 -24 24 -56 31 -73 7 -16 25 -59 40
-95 15 -36 35 -83 45 -105 9 -22 28 -65 41 -95 80 -185 170 -257 314 -251 40
2 159 35 179 49 6 5 34 17 61 27 28 10 73 28 100 41 28 12 138 59 245 104 107
46 213 90 235 100 22 10 101 43 175 75 170 72 196 85 245 128 80 69 113 189
82 298 -9 30 -44 119 -78 199 -34 80 -79 186 -99 237 l-38 92 36 27 c21 15
105 96 188 180 123 123 154 150 167 142 10 -5 75 -33 145 -62 70 -29 148 -63
174 -75 181 -82 283 -95 380 -48 101 49 119 80 273 442 53 127 135 318 180
425 123 289 132 311 148 365 31 106 -1 225 -78 293 -50 44 -122 80 -367 183
l-178 74 7 85 c3 47 7 96 8 110 2 14 4 93 4 175 l2 150 202 84 c271 113 349
154 396 207 76 87 91 210 40 329 -4 11 -99 234 -209 495 -111 261 -213 499
-228 529 -86 176 -257 225 -457 132 -11 -5 -88 -39 -172 -74 l-152 -65 -42 57
c-66 88 -144 177 -259 294 -58 59 -106 111 -108 116 -1 4 33 79 76 167 132
267 155 322 158 386 6 152 -64 240 -276 340 -41 20 -201 98 -355 173 -629 308
-602 296 -702 297 -70 0 -149 -38 -201 -97 -25 -29 -83 -134 -158 -285 l-118
-240 -31 6 c-140 26 -488 37 -667 21 l-76 -6 -33 82 c-17 45 -40 100 -49 122
-10 22 -34 83 -55 135 -20 52 -51 121 -68 153 -74 140 -215 197 -367 148z
m1110 -1334 c19 -3 59 -8 89 -12 30 -4 63 -9 75 -11 67 -12 87 -17 146 -30
660 -155 1224 -598 1536 -1206 65 -127 141 -320 170 -433 63 -239 79 -369 79
-625 0 -213 -8 -301 -49 -505 -34 -172 -139 -446 -242 -628 -185 -329 -431
-595 -745 -803 -70 -46 -129 -84 -133 -84 -3 0 -27 -13 -53 -28 -170 -100
-525 -220 -728 -248 -27 -3 -59 -8 -70 -10 -40 -8 -182 -17 -285 -17 -104 -1
-308 10 -319 17 -3 2 -28 7 -56 10 -138 19 -331 71 -489 133 -135 52 -376 175
-384 195 -2 4 -9 8 -16 8 -7 0 -21 9 -31 20 -10 11 -22 20 -27 20 -19 0 -205
149 -311 250 -67 62 -224 245 -272 316 -22 32 -43 61 -47 62 -5 2 -8 8 -8 14
0 5 -14 30 -31 54 -31 45 -138 252 -172 330 -66 155 -143 451 -164 629 -10 89
-10 440 0 523 7 56 28 186 41 249 9 43 48 179 73 253 85 251 236 520 407 725
306 367 742 645 1196 763 63 17 129 32 145 35 17 3 57 10 90 15 33 6 89 14
125 17 36 4 66 8 67 9 5 5 358 -2 393 -7z"/>
<path d="M2654 4795 c-132 -30 -177 -106 -183 -309 -3 -92 -9 -129 -28 -176
-13 -31 -32 -47 -92 -80 -64 -35 -64 -53 3 -91 89 -49 111 -95 121 -245 12
-179 17 -205 52 -252 33 -43 97 -70 173 -73 70 -3 97 14 87 53 -5 18 -17 26
-59 35 -36 9 -62 22 -81 43 -27 31 -27 31 -26 168 0 96 -4 151 -14 185 -16 49
-56 117 -69 117 -16 0 -7 22 23 59 48 60 61 118 60 270 -1 178 12 198 142 226
33 7 57 49 39 67 -16 16 -85 17 -148 3z"/>
<path d="M5480 4789 c-7 -13 -7 -25 0 -38 10 -20 14 -22 87 -41 24 -6 54 -23
67 -37 24 -25 25 -32 24 -159 0 -158 13 -220 58 -280 19 -24 34 -47 34 -50 0
-2 -11 -17 -25 -32 -51 -54 -67 -122 -66 -278 1 -130 -1 -144 -21 -169 -22
-28 -48 -41 -100 -50 -42 -8 -48 -12 -48 -39 0 -37 22 -48 92 -45 69 3 121 20
155 51 44 41 55 85 68 269 11 165 29 196 150 265 34 19 24 47 -27 74 -25 14
-55 34 -66 44 -30 27 -48 90 -51 181 -5 149 -13 192 -46 250 -36 63 -104 94
-222 100 -44 3 -55 0 -63 -16z"/>
<path d="M3338 4741 c-12 -33 -64 -184 -232 -684 l-134 -398 75 3 76 3 49 153
50 152 211 -2 211 -3 36 -110 c21 -60 40 -117 43 -125 3 -8 8 -27 11 -42 6
-28 7 -28 86 -28 l79 0 -56 168 c-30 92 -57 174 -60 182 -3 8 -61 179 -129
379 -68 200 -126 367 -130 370 -3 3 -44 6 -91 6 -82 1 -85 0 -95 -24z m255
-622 l6 -25 -168 0 -168 0 23 70 c12 39 48 150 80 246 32 96 59 178 60 183 1
4 2 10 3 15 2 7 152 -439 164 -489z"/>
<path d="M4012 4761 c-6 -4 -10 -229 -9 -553 l0 -548 73 0 74 0 0 205 0 205
78 1 c74 0 91 2 175 13 54 8 123 40 174 82 141 116 162 358 42 483 -85 90
-169 113 -416 116 -100 1 -186 -1 -191 -4z m413 -145 c77 -33 112 -82 118
-167 10 -130 -62 -225 -185 -244 -30 -5 -163 -9 -195 -6 -10 1 -13 52 -13 221
l0 220 118 -3 c80 -3 130 -10 157 -21z"/>
<path d="M4790 4707 l0 -58 68 2 67 3 3 -442 2 -442 -67 2 -68 2 -3 -57 -3
-57 214 0 214 0 2 55 c2 61 8 58 -96 57 -27 -1 -43 4 -44 11 -4 63 -2 851 2
859 4 6 35 11 70 12 l64 1 0 55 0 55 -212 0 -213 1 0 -59z"/>
</g>
</svg>
